<svg width="480" height="322" viewBox="0 0 480 322" fill="none" xmlns="http://www.w3.org/2000/svg">
<g filter="url(#filter0_d_109_563)">
<rect x="25" y="25" width="430" height="272" rx="10" fill="white"/>
</g>
<rect x="61" y="211" width="358" height="50" rx="2" fill="black"/>
<path d="M191.729 234C191.243 231.315 189.095 229.73 186.462 229.73C183.112 229.73 180.683 232.312 180.683 236.455C180.683 240.597 183.112 243.179 186.462 243.179C189.095 243.179 191.243 241.594 191.729 238.909H190.143C189.76 240.724 188.2 241.696 186.462 241.696C184.084 241.696 182.217 239.855 182.217 236.455C182.217 233.054 184.084 231.213 186.462 231.213C188.2 231.213 189.76 232.185 190.143 234H191.729ZM198.074 243.205C200.733 243.205 202.523 241.185 202.523 238.142C202.523 235.074 200.733 233.054 198.074 233.054C195.415 233.054 193.626 235.074 193.626 238.142C193.626 241.185 195.415 243.205 198.074 243.205ZM198.074 241.849C196.055 241.849 195.134 240.111 195.134 238.142C195.134 236.173 196.055 234.409 198.074 234.409C200.094 234.409 201.015 236.173 201.015 238.142C201.015 240.111 200.094 241.849 198.074 241.849ZM205.547 233.182H203.808L206.927 238.091L203.808 243H205.547L207.899 239.19L210.251 243H211.99L208.819 238.091L211.99 233.182H210.251L207.899 237.196L205.547 233.182ZM214.142 246.682H215.651V241.491H215.779C216.111 242.028 216.75 243.205 218.642 243.205C221.097 243.205 222.81 241.236 222.81 238.116C222.81 235.023 221.097 233.054 218.617 233.054C216.699 233.054 216.111 234.23 215.779 234.741H215.6V233.182H214.142V246.682ZM215.625 238.091C215.625 235.892 216.597 234.409 218.438 234.409C220.355 234.409 221.301 236.02 221.301 238.091C221.301 240.188 220.33 241.849 218.438 241.849C216.623 241.849 215.625 240.315 215.625 238.091ZM228 243.23C229.713 243.23 230.608 242.31 230.915 241.67H230.992V243H232.5V236.531C232.5 233.412 230.123 233.054 228.87 233.054C227.387 233.054 225.699 233.565 224.932 235.355L226.364 235.866C226.696 235.151 227.483 234.384 228.921 234.384C230.308 234.384 230.992 235.119 230.992 236.378V236.429C230.992 237.158 230.25 237.094 228.461 237.324C226.639 237.56 224.651 237.963 224.651 240.213C224.651 242.131 226.134 243.23 228 243.23ZM228.23 241.875C227.029 241.875 226.159 241.338 226.159 240.29C226.159 239.139 227.208 238.781 228.384 238.628C229.023 238.551 230.736 238.372 230.992 238.065V239.446C230.992 240.673 230.02 241.875 228.23 241.875ZM236.762 233.182H235.254V243H236.762V238.807H241.467V243H242.975V233.182H241.467V237.401H236.762V233.182ZM249.847 243.205C251.841 243.205 253.298 242.207 253.759 240.724L252.301 240.315C251.918 241.338 251.029 241.849 249.847 241.849C248.076 241.849 246.855 240.705 246.785 238.602H253.912V237.963C253.912 234.307 251.739 233.054 249.693 233.054C247.034 233.054 245.27 235.151 245.27 238.168C245.27 241.185 247.009 243.205 249.847 243.205ZM246.785 237.298C246.887 235.771 247.968 234.409 249.693 234.409C251.33 234.409 252.378 235.636 252.378 237.298H246.785ZM257.715 233.182H256.207V243H257.715V238.807H262.42V243H263.928V233.182H262.42V237.401H257.715V233.182ZM268.192 240.776V233.182H266.683V243H268.448L273.152 235.406V243H274.661V233.182H272.922L268.192 240.776ZM281.54 243.205C283.534 243.205 284.992 242.207 285.452 240.724L283.995 240.315C283.611 241.338 282.723 241.849 281.54 241.849C279.77 241.849 278.549 240.705 278.478 238.602H285.605V237.963C285.605 234.307 283.432 233.054 281.387 233.054C278.728 233.054 276.963 235.151 276.963 238.168C276.963 241.185 278.702 243.205 281.54 243.205ZM278.478 237.298C278.581 235.771 279.661 234.409 281.387 234.409C283.023 234.409 284.071 235.636 284.071 237.298H278.478ZM289 243.102C289.632 243.102 290.15 242.585 290.15 241.952C290.15 241.319 289.632 240.801 289 240.801C288.367 240.801 287.849 241.319 287.849 241.952C287.849 242.585 288.367 243.102 289 243.102ZM293.957 243.102C294.589 243.102 295.107 242.585 295.107 241.952C295.107 241.319 294.589 240.801 293.957 240.801C293.324 240.801 292.806 241.319 292.806 241.952C292.806 242.585 293.324 243.102 293.957 243.102ZM298.914 243.102C299.547 243.102 300.064 242.585 300.064 241.952C300.064 241.319 299.547 240.801 298.914 240.801C298.281 240.801 297.763 241.319 297.763 241.952C297.763 242.585 298.281 243.102 298.914 243.102Z" fill="white"/>
<line opacity="0.2" x1="61" y1="162.5" x2="419" y2="162.5" stroke="black"/>
<path d="M63.2472 145.406C63.2472 144.074 64.0973 143.318 65.2557 143.318C66.3594 143.318 67.0256 144.014 67.0256 145.227V150H68.1989V145.148C68.1989 143.184 67.1548 142.264 65.5938 142.264C64.3906 142.264 63.7045 142.766 63.3466 143.557H63.2472V139.818H62.0739V150H63.2472V145.406ZM73.6664 142.364H72.0357V140.534H70.8624V142.364H69.709V143.358H70.8624V148.131C70.8624 149.463 71.9363 150.099 72.9306 150.099C73.3681 150.099 73.6465 150.02 73.8056 149.96L73.5669 148.906C73.4675 148.926 73.3084 148.966 73.0499 148.966C72.5328 148.966 72.0357 148.807 72.0357 147.812V143.358H73.6664V142.364ZM78.7523 142.364H77.1216V140.534H75.9483V142.364H74.7949V143.358H75.9483V148.131C75.9483 149.463 77.0222 150.099 78.0165 150.099C78.454 150.099 78.7324 150.02 78.8915 149.96L78.6529 148.906C78.5534 148.926 78.3944 148.966 78.1358 148.966C77.6188 148.966 77.1216 148.807 77.1216 147.812V143.358H78.7523V142.364ZM80.5172 152.864H81.6905V148.827H81.79C82.0485 149.244 82.5456 150.159 84.0172 150.159C85.9263 150.159 87.2587 148.628 87.2587 146.202C87.2587 143.795 85.9263 142.264 83.9973 142.264C82.5059 142.264 82.0485 143.179 81.79 143.577H81.6507V142.364H80.5172V152.864ZM81.6706 146.182C81.6706 144.472 82.4263 143.318 83.8581 143.318C85.3496 143.318 86.0854 144.571 86.0854 146.182C86.0854 147.812 85.3297 149.105 83.8581 149.105C82.4462 149.105 81.6706 147.912 81.6706 146.182ZM94.4576 144.074C94.0897 142.99 93.2644 142.264 91.753 142.264C90.1422 142.264 88.949 143.179 88.949 144.472C88.949 145.526 89.5755 146.232 90.9775 146.56L92.2502 146.858C93.0208 147.037 93.3837 147.405 93.3837 147.932C93.3837 148.588 92.6877 149.125 91.5939 149.125C90.6344 149.125 90.0328 148.712 89.824 147.892L88.7104 148.17C88.9838 149.468 90.0527 150.159 91.6138 150.159C93.3887 150.159 94.5968 149.19 94.5968 147.872C94.5968 146.808 93.9306 146.137 92.5684 145.804L91.4348 145.526C90.53 145.302 90.1223 144.999 90.1223 144.412C90.1223 143.756 90.8184 143.278 91.753 143.278C92.7772 143.278 93.1998 143.845 93.4036 144.372L94.4576 144.074ZM97.218 150.08C97.7102 150.08 98.1129 149.677 98.1129 149.185C98.1129 148.692 97.7102 148.29 97.218 148.29C96.7259 148.29 96.3232 148.692 96.3232 149.185C96.3232 149.677 96.7259 150.08 97.218 150.08ZM97.218 144.412C97.7102 144.412 98.1129 144.009 98.1129 143.517C98.1129 143.025 97.7102 142.622 97.218 142.622C96.7259 142.622 96.3232 143.025 96.3232 143.517C96.3232 144.009 96.7259 144.412 97.218 144.412ZM103.818 139.341H102.744L99.4627 151.531H100.537L103.818 139.341ZM108.808 139.341H107.734L104.453 151.531H105.527L108.808 139.341ZM115.608 144.074C115.24 142.99 114.415 142.264 112.903 142.264C111.293 142.264 110.099 143.179 110.099 144.472C110.099 145.526 110.726 146.232 112.128 146.56L113.401 146.858C114.171 147.037 114.534 147.405 114.534 147.932C114.534 148.588 113.838 149.125 112.744 149.125C111.785 149.125 111.183 148.712 110.974 147.892L109.861 148.17C110.134 149.468 111.203 150.159 112.764 150.159C114.539 150.159 115.747 149.19 115.747 147.872C115.747 146.808 115.081 146.137 113.719 145.804L112.585 145.526C111.68 145.302 111.273 144.999 111.273 144.412C111.273 143.756 111.969 143.278 112.903 143.278C113.928 143.278 114.35 143.845 114.554 144.372L115.608 144.074ZM120.616 150.159C122.684 150.159 124.076 148.588 124.076 146.222C124.076 143.835 122.684 142.264 120.616 142.264C118.547 142.264 117.155 143.835 117.155 146.222C117.155 148.588 118.547 150.159 120.616 150.159ZM120.616 149.105C119.045 149.105 118.329 147.753 118.329 146.222C118.329 144.69 119.045 143.318 120.616 143.318C122.187 143.318 122.903 144.69 122.903 146.222C122.903 147.753 122.187 149.105 120.616 149.105ZM125.867 150H127.04V145.227C127.04 144.109 127.855 143.318 128.77 143.318C129.66 143.318 130.282 143.9 130.282 144.77V150H131.475V145.028C131.475 144.044 132.091 143.318 133.165 143.318C134 143.318 134.716 143.761 134.716 144.889V150H135.89V144.889C135.89 143.094 134.925 142.264 133.563 142.264C132.469 142.264 131.669 142.766 131.276 143.557H131.196C130.819 142.741 130.152 142.264 129.148 142.264C128.154 142.264 127.418 142.741 127.1 143.557H127V142.364H125.867V150ZM141.237 150.159C142.788 150.159 143.921 149.384 144.279 148.23L143.146 147.912C142.847 148.707 142.156 149.105 141.237 149.105C139.859 149.105 138.91 148.215 138.855 146.58H144.398V146.082C144.398 143.239 142.708 142.264 141.117 142.264C139.049 142.264 137.677 143.895 137.677 146.241C137.677 148.588 139.029 150.159 141.237 150.159ZM138.855 145.565C138.935 144.377 139.775 143.318 141.117 143.318C142.39 143.318 143.205 144.273 143.205 145.565H138.855ZM147.913 150H149.067L150.737 144.134H150.857L152.527 150H153.68L156.007 142.364H154.774L153.124 148.19H153.044L151.433 142.364H150.18L148.55 148.21H148.47L146.82 142.364H145.587L147.913 150ZM160.5 150.159C162.051 150.159 163.185 149.384 163.543 148.23L162.409 147.912C162.111 148.707 161.42 149.105 160.5 149.105C159.123 149.105 158.173 148.215 158.119 146.58H163.662V146.082C163.662 143.239 161.972 142.264 160.381 142.264C158.313 142.264 156.941 143.895 156.941 146.241C156.941 148.588 158.293 150.159 160.5 150.159ZM158.119 145.565C158.198 144.377 159.039 143.318 160.381 143.318C161.654 143.318 162.469 144.273 162.469 145.565H158.119ZM165.606 150H166.74V148.827H166.879C167.137 149.244 167.634 150.159 169.106 150.159C171.015 150.159 172.347 148.628 172.347 146.202C172.347 143.795 171.015 142.264 169.086 142.264C167.595 142.264 167.137 143.179 166.879 143.577H166.779V139.818H165.606V150ZM166.759 146.182C166.759 144.472 167.515 143.318 168.947 143.318C170.438 143.318 171.174 144.571 171.174 146.182C171.174 147.812 170.419 149.105 168.947 149.105C167.535 149.105 166.759 147.912 166.759 146.182ZM179.551 144.074C179.183 142.99 178.358 142.264 176.847 142.264C175.236 142.264 174.043 143.179 174.043 144.472C174.043 145.526 174.669 146.232 176.071 146.56L177.344 146.858C178.115 147.037 178.477 147.405 178.477 147.932C178.477 148.588 177.781 149.125 176.688 149.125C175.728 149.125 175.127 148.712 174.918 147.892L173.804 148.17C174.078 149.468 175.146 150.159 176.708 150.159C178.482 150.159 179.691 149.19 179.691 147.872C179.691 146.808 179.024 146.137 177.662 145.804L176.529 145.526C175.624 145.302 175.216 144.999 175.216 144.412C175.216 143.756 175.912 143.278 176.847 143.278C177.871 143.278 178.294 143.845 178.497 144.372L179.551 144.074ZM181.457 150H182.63V142.364H181.457V150ZM182.053 141.091C182.511 141.091 182.888 140.733 182.888 140.295C182.888 139.858 182.511 139.5 182.053 139.5C181.596 139.5 181.218 139.858 181.218 140.295C181.218 140.733 181.596 141.091 182.053 141.091ZM188.1 142.364H186.469V140.534H185.296V142.364H184.143V143.358H185.296V148.131C185.296 149.463 186.37 150.099 187.364 150.099C187.802 150.099 188.08 150.02 188.239 149.96L188.001 148.906C187.901 148.926 187.742 148.966 187.483 148.966C186.966 148.966 186.469 148.807 186.469 147.812V143.358H188.1V142.364ZM192.985 150.159C194.536 150.159 195.669 149.384 196.027 148.23L194.894 147.912C194.595 148.707 193.904 149.105 192.985 149.105C191.607 149.105 190.658 148.215 190.603 146.58H196.146V146.082C196.146 143.239 194.456 142.264 192.865 142.264C190.797 142.264 189.425 143.895 189.425 146.241C189.425 148.588 190.777 150.159 192.985 150.159ZM190.603 145.565C190.683 144.377 191.523 143.318 192.865 143.318C194.138 143.318 194.953 144.273 194.953 145.565H190.603ZM198.786 150.08C199.279 150.08 199.681 149.677 199.681 149.185C199.681 148.692 199.279 148.29 198.786 148.29C198.294 148.29 197.892 148.692 197.892 149.185C197.892 149.677 198.294 150.08 198.786 150.08ZM204.889 150.159C206.579 150.159 207.693 149.125 207.892 147.773H206.719C206.5 148.608 205.804 149.105 204.889 149.105C203.497 149.105 202.602 147.952 202.602 146.182C202.602 144.452 203.517 143.318 204.889 143.318C205.923 143.318 206.54 143.955 206.719 144.651H207.892C207.693 143.219 206.48 142.264 204.869 142.264C202.801 142.264 201.429 143.895 201.429 146.222C201.429 148.509 202.741 150.159 204.889 150.159ZM212.709 150.159C214.778 150.159 216.17 148.588 216.17 146.222C216.17 143.835 214.778 142.264 212.709 142.264C210.641 142.264 209.249 143.835 209.249 146.222C209.249 148.588 210.641 150.159 212.709 150.159ZM212.709 149.105C211.138 149.105 210.422 147.753 210.422 146.222C210.422 144.69 211.138 143.318 212.709 143.318C214.28 143.318 214.996 144.69 214.996 146.222C214.996 147.753 214.28 149.105 212.709 149.105ZM217.961 150H219.134V145.227C219.134 144.109 219.949 143.318 220.864 143.318C221.754 143.318 222.375 143.9 222.375 144.77V150H223.569V145.028C223.569 144.044 224.185 143.318 225.259 143.318C226.094 143.318 226.81 143.761 226.81 144.889V150H227.983V144.889C227.983 143.094 227.019 142.264 225.657 142.264C224.563 142.264 223.762 142.766 223.37 143.557H223.29C222.912 142.741 222.246 142.264 221.242 142.264C220.248 142.264 219.512 142.741 219.194 143.557H219.094V142.364H217.961V150ZM233.728 139.341H232.654L229.373 151.531H230.447L233.728 139.341ZM240.528 144.074C240.16 142.99 239.335 142.264 237.823 142.264C236.213 142.264 235.019 143.179 235.019 144.472C235.019 145.526 235.646 146.232 237.048 146.56L238.32 146.858C239.091 147.037 239.454 147.405 239.454 147.932C239.454 148.588 238.758 149.125 237.664 149.125C236.705 149.125 236.103 148.712 235.894 147.892L234.781 148.17C235.054 149.468 236.123 150.159 237.684 150.159C239.459 150.159 240.667 149.19 240.667 147.872C240.667 146.808 240.001 146.137 238.639 145.804L237.505 145.526C236.6 145.302 236.193 144.999 236.193 144.412C236.193 143.756 236.889 143.278 237.823 143.278C238.847 143.278 239.27 143.845 239.474 144.372L240.528 144.074ZM245.536 150.159C247.604 150.159 248.996 148.588 248.996 146.222C248.996 143.835 247.604 142.264 245.536 142.264C243.467 142.264 242.075 143.835 242.075 146.222C242.075 148.588 243.467 150.159 245.536 150.159ZM245.536 149.105C243.964 149.105 243.249 147.753 243.249 146.222C243.249 144.69 243.964 143.318 245.536 143.318C247.107 143.318 247.822 144.69 247.822 146.222C247.822 147.753 247.107 149.105 245.536 149.105ZM250.787 150H251.96V145.227C251.96 144.109 252.775 143.318 253.69 143.318C254.58 143.318 255.202 143.9 255.202 144.77V150H256.395V145.028C256.395 144.044 257.011 143.318 258.085 143.318C258.92 143.318 259.636 143.761 259.636 144.889V150H260.809V144.889C260.809 143.094 259.845 142.264 258.483 142.264C257.389 142.264 256.589 142.766 256.196 143.557H256.116C255.738 142.741 255.072 142.264 254.068 142.264C253.074 142.264 252.338 142.741 252.02 143.557H251.92V142.364H250.787V150ZM266.156 150.159C267.708 150.159 268.841 149.384 269.199 148.23L268.066 147.912C267.767 148.707 267.076 149.105 266.156 149.105C264.779 149.105 263.83 148.215 263.775 146.58H269.318V146.082C269.318 143.239 267.628 142.264 266.037 142.264C263.969 142.264 262.597 143.895 262.597 146.241C262.597 148.588 263.949 150.159 266.156 150.159ZM263.775 145.565C263.855 144.377 264.695 143.318 266.037 143.318C267.31 143.318 268.125 144.273 268.125 145.565H263.775ZM271.103 150H272.276V142.364H271.103V150ZM271.7 141.091C272.157 141.091 272.535 140.733 272.535 140.295C272.535 139.858 272.157 139.5 271.7 139.5C271.242 139.5 270.865 139.858 270.865 140.295C270.865 140.733 271.242 141.091 271.7 141.091ZM274.425 150H275.599V145.227C275.599 144.109 276.414 143.318 277.329 143.318C278.219 143.318 278.84 143.9 278.84 144.77V150H280.033V145.028C280.033 144.044 280.65 143.318 281.724 143.318C282.559 143.318 283.275 143.761 283.275 144.889V150H284.448V144.889C284.448 143.094 283.484 142.264 282.121 142.264C281.028 142.264 280.227 142.766 279.835 143.557H279.755C279.377 142.741 278.711 142.264 277.707 142.264C276.712 142.264 275.977 142.741 275.658 143.557H275.559V142.364H274.425V150ZM288.841 150.179C290.173 150.179 290.869 149.463 291.108 148.966H291.167V150H292.341V144.969C292.341 142.543 290.491 142.264 289.517 142.264C288.363 142.264 287.051 142.662 286.454 144.054L287.568 144.452C287.826 143.895 288.438 143.298 289.556 143.298C290.635 143.298 291.167 143.87 291.167 144.849V144.889C291.167 145.456 290.591 145.406 289.199 145.585C287.782 145.769 286.235 146.082 286.235 147.832C286.235 149.324 287.389 150.179 288.841 150.179ZM289.02 149.125C288.085 149.125 287.409 148.707 287.409 147.892C287.409 146.997 288.224 146.719 289.139 146.599C289.636 146.54 290.968 146.401 291.167 146.162V147.236C291.167 148.19 290.412 149.125 289.02 149.125ZM297.564 153.023C299.394 153.023 300.866 152.188 300.866 150.219V142.364H299.732V143.577H299.613C299.354 143.179 298.877 142.264 297.385 142.264C295.456 142.264 294.124 143.795 294.124 146.142C294.124 148.528 295.516 149.881 297.366 149.881C298.857 149.881 299.334 149.006 299.593 148.588H299.692V150.139C299.692 151.412 298.797 151.989 297.564 151.989C296.177 151.989 295.69 151.258 295.377 150.835L294.442 151.491C294.92 152.292 295.859 153.023 297.564 153.023ZM297.525 148.827C296.053 148.827 295.297 147.713 295.297 146.122C295.297 144.571 296.033 143.318 297.525 143.318C298.956 143.318 299.712 144.472 299.712 146.122C299.712 147.812 298.937 148.827 297.525 148.827ZM306.215 150.159C307.766 150.159 308.9 149.384 309.258 148.23L308.124 147.912C307.826 148.707 307.135 149.105 306.215 149.105C304.838 149.105 303.888 148.215 303.834 146.58H309.377V146.082C309.377 143.239 307.687 142.264 306.096 142.264C304.028 142.264 302.655 143.895 302.655 146.241C302.655 148.588 304.008 150.159 306.215 150.159ZM303.834 145.565C303.913 144.377 304.753 143.318 306.096 143.318C307.368 143.318 308.184 144.273 308.184 145.565H303.834ZM312.017 150.08C312.509 150.08 312.912 149.677 312.912 149.185C312.912 148.692 312.509 148.29 312.017 148.29C311.525 148.29 311.122 148.692 311.122 149.185C311.122 149.677 311.525 150.08 312.017 150.08ZM315.017 142.364V150.557C315.017 151.332 314.699 151.77 313.983 151.77H313.764V152.864H314.003C315.475 152.864 316.191 151.969 316.191 150.557V142.364H315.017ZM315.594 141.091C316.051 141.091 316.429 140.733 316.429 140.295C316.429 139.858 316.051 139.5 315.594 139.5C315.137 139.5 314.759 139.858 314.759 140.295C314.759 140.733 315.137 141.091 315.594 141.091ZM318.339 152.864H319.513V148.827H319.612C319.871 149.244 320.368 150.159 321.839 150.159C323.749 150.159 325.081 148.628 325.081 146.202C325.081 143.795 323.749 142.264 321.82 142.264C320.328 142.264 319.871 143.179 319.612 143.577H319.473V142.364H318.339V152.864ZM319.493 146.182C319.493 144.472 320.249 143.318 321.68 143.318C323.172 143.318 323.908 144.571 323.908 146.182C323.908 147.812 323.152 149.105 321.68 149.105C320.268 149.105 319.493 147.912 319.493 146.182ZM329.953 153.023C331.783 153.023 333.254 152.188 333.254 150.219V142.364H332.121V143.577H332.001C331.743 143.179 331.266 142.264 329.774 142.264C327.845 142.264 326.513 143.795 326.513 146.142C326.513 148.528 327.905 149.881 329.754 149.881C331.246 149.881 331.723 149.006 331.982 148.588H332.081V150.139C332.081 151.412 331.186 151.989 329.953 151.989C328.566 151.989 328.079 151.258 327.766 150.835L326.831 151.491C327.308 152.292 328.248 153.023 329.953 153.023ZM329.913 148.827C328.442 148.827 327.686 147.713 327.686 146.122C327.686 144.571 328.422 143.318 329.913 143.318C331.345 143.318 332.101 144.472 332.101 146.122C332.101 147.812 331.325 148.827 329.913 148.827Z" fill="black"/>
<path d="M79.0341 73.2727C79.0341 67.4432 75.2841 64.3068 70.5455 64.3068C65.7727 64.3068 62.0568 67.4432 62.0568 73.2727C62.0568 79.0682 65.7727 82.2386 70.5455 82.2386C75.2841 82.2386 79.0341 79.1023 79.0341 73.2727ZM74.1591 73.2727C74.1591 76.4091 72.8977 78.1136 70.5455 78.1136C68.1932 78.1136 66.9318 76.4091 66.9318 73.2727C66.9318 70.1364 68.1932 68.4318 70.5455 68.4318C72.8977 68.4318 74.1591 70.1364 74.1591 73.2727ZM92.9538 64.1705C92.2976 64.5625 91.1641 64.554 89.647 64.5455C89.4425 64.5455 89.2209 64.5455 88.9993 64.5455C83.7152 64.5455 80.8857 67.4943 80.8857 74.125V74.9773C80.8857 79.6818 83.4084 82.2386 87.6697 82.2386C91.9311 82.2386 94.4538 79.6903 94.4538 75.7614C94.4538 72.1307 92.2891 69.7614 88.7607 69.7614C86.4595 69.7614 85.2152 70.7841 84.4993 72.3523H84.397C84.7379 69.25 85.9311 68.2614 89.1697 68.2614C92.0334 68.2614 93.0561 68.0568 94.1129 67.3068L92.9538 64.1705ZM87.7038 78.7614C86.4425 78.7614 85.6925 77.7386 85.6925 75.9659C85.6925 74.1591 86.4425 73.1364 87.7038 73.1364C88.897 73.1364 89.647 74.1591 89.647 75.9659C89.647 77.7386 88.897 78.7614 87.7038 78.7614ZM100.867 68.9091H96.4354V82H100.867V77.1591H104.14V82H108.538V68.9091H104.14V73.6477H100.867V68.9091ZM117.086 82.2386C121.347 82.2386 123.87 79.5114 123.87 75.4886C123.87 71.4659 121.347 68.7386 117.086 68.7386C112.825 68.7386 110.302 71.4659 110.302 75.4886C110.302 79.5114 112.825 82.2386 117.086 82.2386ZM117.12 78.7614C115.859 78.7614 115.109 77.5085 115.109 75.4545C115.109 73.4006 115.859 72.1477 117.12 72.1477C118.313 72.1477 119.063 73.4006 119.063 75.4545C119.063 77.5085 118.313 78.7614 117.12 78.7614ZM125.779 82H132.393C136.075 82 138.052 80.7727 138.052 78.3864C138.052 76.8864 136.825 75.3523 133.859 75.2159C136.006 74.875 137.165 73.7841 137.165 72.4886C137.165 70.1023 135.018 68.9091 131.506 68.9091H125.779V82ZM130.143 78.6932V76.6136H132.393C133.151 76.6136 133.62 77.0142 133.62 77.6705C133.62 78.3097 133.151 78.6932 132.393 78.6932H130.143ZM130.143 74.2273V72.3182H131.506C132.308 72.3182 132.802 72.6761 132.802 73.2727C132.802 73.8693 132.367 74.2273 131.643 74.2273H130.143ZM144.297 76V68.9091H139.865V82H144.297L147.945 74.875V82H152.376V68.9091H147.945L144.297 76ZM153.772 72.4205H157.863V82H162.295V72.4205H166.454V68.9091H153.772V72.4205ZM172.633 72.4545V68.9091H168.201V82H174.849C178.582 82 180.866 80.2188 180.883 77.2955C180.866 74.2869 178.582 72.4545 174.849 72.4545H172.633ZM172.633 75.9659H174.849C175.812 75.9659 176.502 76.5028 176.519 77.2614C176.502 77.9773 175.812 78.4886 174.849 78.4886H172.633V75.9659ZM191.278 82.2045C192.983 82.2045 194.27 81.625 195.062 80.1591H195.165V82H199.562V73.0341C199.562 70.6136 197.27 68.7386 193.528 68.7386C189.616 68.7386 187.69 70.7841 187.528 73.1705H191.858C191.969 72.3608 192.565 71.9773 193.46 71.9773C194.278 71.9773 194.858 72.3523 194.858 73.0341V73.0682C194.858 73.8267 194.023 74.0653 191.824 74.2273C189.122 74.4233 187.017 75.5142 187.017 78.3864C187.017 80.9943 188.773 82.2045 191.278 82.2045ZM192.812 79.2386C192.011 79.2386 191.449 78.8466 191.449 78.1136C191.449 77.4403 191.926 76.9205 193.017 76.75C193.767 76.6307 194.398 76.4773 194.892 76.2727V77.3636C194.892 78.5568 193.878 79.2386 192.812 79.2386ZM201.81 82H208.424C212.106 82 214.083 80.7727 214.083 78.3864C214.083 76.8864 212.856 75.3523 209.89 75.2159C212.038 74.875 213.197 73.7841 213.197 72.4886C213.197 70.1023 211.049 68.9091 207.538 68.9091H201.81V82ZM206.174 78.6932V76.6136H208.424C209.183 76.6136 209.651 77.0142 209.651 77.6705C209.651 78.3097 209.183 78.6932 208.424 78.6932H206.174ZM206.174 74.2273V72.3182H207.538C208.339 72.3182 208.833 72.6761 208.833 73.2727C208.833 73.8693 208.398 74.2273 207.674 74.2273H206.174ZM219.544 82.2045C221.249 82.2045 222.536 81.625 223.328 80.1591H223.43V82H227.828V73.0341C227.828 70.6136 225.536 68.7386 221.794 68.7386C217.882 68.7386 215.956 70.7841 215.794 73.1705H220.124C220.234 72.3608 220.831 71.9773 221.726 71.9773C222.544 71.9773 223.124 72.3523 223.124 73.0341V73.0682C223.124 73.8267 222.288 74.0653 220.089 74.2273C217.388 74.4233 215.283 75.5142 215.283 78.3864C215.283 80.9943 217.038 82.2045 219.544 82.2045ZM221.078 79.2386C220.277 79.2386 219.714 78.8466 219.714 78.1136C219.714 77.4403 220.192 76.9205 221.283 76.75C222.033 76.6307 222.663 76.4773 223.158 76.2727V77.3636C223.158 78.5568 222.143 79.2386 221.078 79.2386ZM229.077 72.4205H233.168V82H237.599V72.4205H241.759V68.9091H229.077V72.4205ZM246.802 82.2045C248.506 82.2045 249.793 81.625 250.586 80.1591H250.688V82H255.086V73.0341C255.086 70.6136 252.793 68.7386 249.052 68.7386C245.14 68.7386 243.214 70.7841 243.052 73.1705H247.381C247.492 72.3608 248.089 71.9773 248.984 71.9773C249.802 71.9773 250.381 72.3523 250.381 73.0341V73.0682C250.381 73.8267 249.546 74.0653 247.347 74.2273C244.646 74.4233 242.54 75.5142 242.54 78.3864C242.54 80.9943 244.296 82.2045 246.802 82.2045ZM248.336 79.2386C247.535 79.2386 246.972 78.8466 246.972 78.1136C246.972 77.4403 247.45 76.9205 248.54 76.75C249.29 76.6307 249.921 76.4773 250.415 76.2727V77.3636C250.415 78.5568 249.401 79.2386 248.336 79.2386ZM257.334 86.9091H262.038V79.8523H262.107C262.652 81.1818 263.913 82.1705 265.754 82.1705C268.55 82.1705 270.902 79.9886 270.902 75.4545C270.902 70.7159 268.379 68.7386 265.788 68.7386C263.845 68.7386 262.618 69.8636 262.107 71.1932H262.004V68.9091H257.334V86.9091ZM261.936 75.4545C261.936 73.5114 262.72 72.3523 264.016 72.3523C265.311 72.3523 266.061 73.5114 266.061 75.4545C266.061 77.3977 265.311 78.5568 264.016 78.5568C262.72 78.5568 261.936 77.3636 261.936 75.4545Z" fill="black"/>
<defs>
<filter id="filter0_d_109_563" x="0" y="0" width="480" height="322" filterUnits="userSpaceOnUse" color-interpolation-filters="sRGB">
<feFlood flood-opacity="0" result="BackgroundImageFix"/>
<feColorMatrix in="SourceAlpha" type="matrix" values="0 0 0 0 0 0 0 0 0 0 0 0 0 0 0 0 0 0 127 0" result="hardAlpha"/>
<feOffset/>
<feGaussianBlur stdDeviation="12.5"/>
<feColorMatrix type="matrix" values="0 0 0 0 0 0 0 0 0 0 0 0 0 0 0 0 0 0 0.15 0"/>
<feBlend mode="normal" in2="BackgroundImageFix" result="effect1_dropShadow_109_563"/>
<feBlend mode="normal" in="SourceGraphic" in2="effect1_dropShadow_109_563" result="shape"/>
</filter>
</defs>
</svg>
